<svg width="48" height="48" viewBox="0 0 48 48" fill="none" xmlns="http://www.w3.org/2000/svg">
<rect width="48" height="48" rx="10" fill="#3F0F3F"/>
<path fill-rule="evenodd" clip-rule="evenodd" d="M16.2793 28.4795C16.2793 26.6346 17.8084 25.1494 19.7079 25.1494C21.6073 25.1494 23.1364 26.6346 23.1364 28.4795V36.6765C23.1364 38.5213 21.6073 40.0066 19.7079 40.0066C17.8084 40.0066 16.2793 38.5213 16.2793 36.6765V28.4795Z" fill="#E01E5A"/>
<path fill-rule="evenodd" clip-rule="evenodd" d="M28.7519 32.0066C26.907 32.0066 25.4219 30.4774 25.4219 28.578C25.4219 26.6786 26.907 25.1494 28.7519 25.1494H36.949C38.7939 25.1494 40.279 26.6786 40.279 28.578C40.279 30.4774 38.7939 32.0066 36.949 32.0066H28.7519Z" fill="#ECB22D"/>
<path fill-rule="evenodd" clip-rule="evenodd" d="M25.4219 11.3368C25.4219 9.49198 26.951 8.00684 28.8504 8.00684C30.7499 8.00684 32.279 9.49198 32.279 11.3368V19.534C32.279 21.3788 30.7499 22.864 28.8504 22.864C26.951 22.864 25.4219 21.3788 25.4219 19.5339V11.3368Z" fill="#2FB67C"/>
<path fill-rule="evenodd" clip-rule="evenodd" d="M11.6093 22.864C9.76444 22.864 8.2793 21.3348 8.2793 19.4354C8.2793 17.536 9.76444 16.0068 11.6093 16.0068H19.8064C21.6513 16.0068 23.1364 17.536 23.1364 19.4354C23.1364 21.3348 21.6513 22.864 19.8064 22.864H11.6093Z" fill="#36C5F1"/>
<path fill-rule="evenodd" clip-rule="evenodd" d="M25.4219 36.578C25.4219 38.4774 26.951 40.0066 28.8504 40.0066C30.7499 40.0066 32.279 38.4774 32.279 36.578C32.279 34.6786 30.7499 33.1494 28.8504 33.1494H25.4219V36.578Z" fill="#ECB22D"/>
<path fill-rule="evenodd" clip-rule="evenodd" d="M36.8504 22.864H33.4219V19.4354C33.4219 17.536 34.951 16.0068 36.8504 16.0068C38.7499 16.0068 40.279 17.536 40.279 19.4354C40.279 21.3348 38.7499 22.864 36.8504 22.864Z" fill="#2FB67C"/>
<path fill-rule="evenodd" clip-rule="evenodd" d="M11.7079 25.1494H15.1364V28.578C15.1364 30.4774 13.6073 32.0066 11.7079 32.0066C9.80844 32.0066 8.2793 30.4774 8.2793 28.578C8.2793 26.6786 9.80844 25.1494 11.7079 25.1494Z" fill="#E01E5A"/>
<path fill-rule="evenodd" clip-rule="evenodd" d="M23.1364 11.4354V14.864H19.7079C17.8084 14.864 16.2793 13.3348 16.2793 11.4354C16.2793 9.53598 17.8084 8.00684 19.7079 8.00684C21.6073 8.00684 23.1364 9.53598 23.1364 11.4354Z" fill="#36C5F1"/>
</svg>
